<svg xmlns="http://www.w3.org/2000/svg" width="500" height="500" version="1.0" viewBox="0 0 375 375"><defs><clipPath id="a"><path d="M68.633 112h16.5v17.934h-16.5Zm0 0"/></clipPath></defs><g clip-path="url(#a)"><path d="M77.793 129.863h-1.867a.47.47 0 0 1-.469-.472v-6l-5.191 2.98a.46.46 0 0 1-.633-.172l-.938-1.597a.47.47 0 0 1-.047-.356.47.47 0 0 1 .22-.289l5.19-3.023-5.19-3.024a.46.46 0 0 1-.22-.285.48.48 0 0 1 .047-.36l.938-1.597a.46.46 0 0 1 .633-.168l5.191 2.98v-6.003a.47.47 0 0 1 .469-.47h1.867a.47.47 0 0 1 .469.47v6.003l5.191-2.98a.46.46 0 0 1 .633.168l.934 1.598a.465.465 0 0 1-.168.644l-5.192 3.024 5.192 3.023a.467.467 0 0 1 .168.645l-.934 1.597a.463.463 0 0 1-.633.172l-5.191-2.98v6a.47.47 0 0 1-.469.472m0 0"/></g><path fill="#ae8cfa" d="M356.547 235.617 273.21 187.5l83.336-48.117c8.113-4.684 10.898-15.074 6.215-23.184L337.3 72.102c-4.684-8.114-15.055-10.895-23.184-6.211l-83.336 48.117V17.773c0-9.37-7.605-16.972-16.972-16.972H162.89c-9.371 0-16.973 7.601-16.973 16.972v96.235L62.582 65.89c-8.133-4.684-18.5-1.903-23.187 6.21l-25.458 44.1c-4.683 8.11-1.917 18.5 6.211 23.184l83.336 48.117-83.336 48.117c-8.113 4.684-10.894 15.074-6.21 23.184l25.457 44.097c4.687 8.114 15.074 10.895 23.187 6.211l83.336-48.117v96.235c0 9.37 7.602 16.972 16.973 16.972h50.918c9.367 0 16.972-7.601 16.972-16.972v-96.235l83.336 48.117c8.113 4.684 18.5 1.903 23.184-6.21l25.46-44.098c4.684-8.11 1.919-18.5-6.214-23.184Zm0 0"/></svg>