<svg xmlns="http://www.w3.org/2000/svg" xmlns:xlink="http://www.w3.org/1999/xlink" width="40" zoomAndPan="magnify" viewBox="0 0 30 74.999997" height="100" preserveAspectRatio="xMidYMid meet" version="1.0"><defs><clipPath id="f5d3074605"><path d="M 10 0 L 19.703125 0 L 19.703125 75 L 10 75 Z M 10 0 " clip-rule="nonzero"/></clipPath></defs><g clip-path="url(#f5d3074605)"><path fill="#d1d1d1" d="M 10.011719 44.503906 C 13.332031 44.503906 16.65625 44.503906 19.984375 44.503906 L 19.984375 46.90625 C 16.65625 46.90625 13.332031 46.90625 10.011719 46.90625 Z M 10.011719 18.042969 C 13.332031 18.042969 16.65625 18.042969 19.984375 18.042969 L 19.984375 15.636719 C 16.65625 15.636719 13.332031 15.636719 10.011719 15.636719 Z M 10.011719 13.832031 C 13.332031 13.832031 16.65625 13.832031 19.984375 13.832031 L 19.984375 11.425781 C 16.65625 11.425781 13.332031 11.425781 10.011719 11.425781 Z M 10.011719 29.46875 C 13.332031 29.46875 16.65625 29.46875 19.984375 29.46875 L 19.984375 27.664062 C 16.65625 27.664062 13.332031 27.664062 10.011719 27.664062 Z M 10.011719 6.015625 C 13.332031 6.015625 16.65625 6.015625 19.984375 6.015625 L 19.984375 4.210938 C 16.65625 4.210938 13.332031 4.210938 10.011719 4.210938 Z M 10.011719 69.160156 C 13.332031 69.160156 16.65625 69.160156 19.984375 69.160156 L 19.984375 67.355469 C 16.65625 67.355469 13.332031 67.355469 10.011719 67.355469 Z M 10.011719 10.824219 C 13.332031 10.824219 16.65625 10.824219 19.984375 10.824219 L 19.984375 9.019531 C 16.65625 9.019531 13.332031 9.019531 10.011719 9.019531 Z M 10.011719 22.851562 C 13.328125 22.851562 16.648438 22.851562 19.984375 22.851562 L 19.984375 21.648438 C 16.652344 21.648438 13.328125 21.648438 10.011719 21.648438 Z M 10.011719 3.007812 C 13.328125 3.007812 16.652344 3.007812 19.984375 3.007812 L 19.984375 1.804688 C 16.652344 1.804688 13.328125 1.804688 10.011719 1.804688 Z M 10.011719 71.5625 C 13.328125 71.5625 16.652344 71.5625 19.984375 71.5625 L 19.984375 70.359375 C 16.652344 70.359375 13.328125 70.359375 10.011719 70.359375 Z M 10.011719 37.285156 C 13.328125 37.285156 16.648438 37.285156 19.984375 37.285156 L 19.984375 36.082031 C 16.652344 36.082031 13.328125 36.082031 10.011719 36.082031 Z M 10.011719 62.542969 C 13.328125 62.542969 16.652344 62.542969 19.984375 62.542969 L 19.984375 61.339844 C 16.652344 61.339844 13.328125 61.339844 10.011719 61.339844 Z M 10.011719 31.875 C 13.328125 31.875 16.652344 31.875 19.984375 31.875 L 19.984375 30.671875 C 16.652344 30.671875 13.328125 30.671875 10.011719 30.671875 Z M 10.011719 57.132812 C 13.328125 57.132812 16.648438 57.132812 19.984375 57.132812 L 19.984375 55.929688 C 16.652344 55.929688 13.328125 55.929688 10.011719 55.929688 Z M 10.011719 53.523438 C 13.328125 53.523438 16.648438 53.523438 19.984375 53.523438 L 19.984375 52.320312 C 16.652344 52.320312 13.328125 52.320312 10.011719 52.320312 Z M 10.011719 75 L 19.984375 75 L 19.984375 74.570312 C 16.664062 74.570312 13.335938 74.570312 10.011719 74.570312 Z M 10.011719 73.367188 C 13.335938 73.367188 16.664062 73.367188 19.984375 73.367188 L 19.984375 72.765625 C 16.664062 72.765625 13.335938 72.765625 10.011719 72.765625 Z M 10.011719 66.753906 C 13.335938 66.753906 16.664062 66.753906 19.984375 66.753906 L 19.984375 66.152344 C 16.664062 66.152344 13.335938 66.152344 10.011719 66.152344 Z M 10.011719 63.746094 C 13.335938 63.746094 16.664062 63.746094 19.984375 63.746094 L 19.984375 63.144531 C 16.664062 63.144531 13.335938 63.144531 10.011719 63.144531 Z M 10.011719 60.136719 C 13.335938 60.136719 16.664062 60.136719 19.984375 60.136719 L 19.984375 59.535156 C 16.664062 59.535156 13.335938 59.535156 10.011719 59.535156 Z M 10.011719 58.332031 C 13.335938 58.332031 16.664062 58.332031 19.984375 58.332031 L 19.984375 57.730469 C 16.664062 57.730469 13.335938 57.730469 10.011719 57.730469 Z M 10.011719 49.914062 C 13.335938 49.914062 16.664062 49.914062 19.984375 49.914062 L 19.984375 49.3125 C 16.664062 49.3125 13.335938 49.3125 10.011719 49.3125 Z M 10.011719 48.710938 C 13.335938 48.710938 16.664062 48.710938 19.984375 48.710938 L 19.984375 48.109375 C 16.664062 48.109375 13.335938 48.109375 10.011719 48.109375 Z M 10.011719 43.902344 C 13.335938 43.902344 16.664062 43.902344 19.984375 43.902344 L 19.984375 43.300781 C 16.664062 43.300781 13.335938 43.300781 10.011719 43.300781 Z M 10.011719 42.097656 C 13.335938 42.097656 16.664062 42.097656 19.984375 42.097656 L 19.984375 41.496094 C 16.664062 41.496094 13.335938 41.496094 10.011719 41.496094 Z M 10.011719 39.765625 L 10.011719 40.292969 C 13.335938 40.292969 16.664062 40.292969 19.984375 40.292969 L 19.984375 39.691406 C 16.664062 39.691406 13.335938 39.691406 10.011719 39.691406 Z M 10.011719 38.488281 C 13.335938 38.488281 16.664062 38.488281 19.984375 38.488281 L 19.984375 37.886719 C 16.664062 37.886719 13.335938 37.886719 10.011719 37.886719 Z M 10.011719 33.675781 C 13.335938 33.675781 16.664062 33.675781 19.984375 33.675781 L 19.984375 33.074219 C 16.664062 33.074219 13.335938 33.074219 10.011719 33.074219 Z M 10.011719 26.515625 L 10.011719 27.0625 C 13.335938 27.0625 16.664062 27.0625 19.984375 27.0625 L 19.984375 26.460938 C 16.664062 26.460938 13.335938 26.460938 10.011719 26.460938 Z M 10.011719 24.054688 C 13.335938 24.054688 16.664062 24.054688 19.984375 24.054688 L 19.984375 23.453125 C 16.664062 23.453125 13.335938 23.453125 10.011719 23.453125 Z M 10.011719 20.445312 C 13.335938 20.445312 16.664062 20.445312 19.984375 20.445312 L 19.984375 19.84375 C 16.664062 19.84375 13.335938 19.84375 10.011719 19.84375 Z M 10.011719 15.035156 C 13.335938 15.035156 16.664062 15.035156 19.984375 15.035156 L 19.984375 14.433594 C 16.664062 14.433594 13.335938 14.433594 10.011719 14.433594 Z M 10.011719 8.417969 C 13.335938 8.417969 16.664062 8.417969 19.984375 8.417969 L 19.984375 7.816406 C 16.664062 7.816406 13.335938 7.816406 10.011719 7.816406 Z M 10.011719 7.214844 C 13.335938 7.214844 16.664062 7.214844 19.984375 7.214844 L 19.984375 6.613281 C 16.664062 6.613281 13.335938 6.613281 10.011719 6.613281 Z M 10.011719 0 L 10.011719 0.601562 C 13.335938 0.601562 16.664062 0.601562 19.984375 0.601562 L 19.984375 0 Z M 10.011719 0 " fill-opacity="1" fill-rule="nonzero"/></g></svg>