<svg xmlns="http://www.w3.org/2000/svg" width="300" height="300" version="1.0" viewBox="0 0 224.88 225"><defs><clipPath id="a"><path d="M63.168 46.95h62.312V109H63.168Zm0 0"/></clipPath><clipPath id="b"><path d="M70.664 46.95h46.965a7.495 7.495 0 0 1 7.496 7.495v46.965a7.5 7.5 0 0 1-7.496 7.496H70.664a7.5 7.5 0 0 1-7.496-7.496V54.445c0-4.14 3.36-7.496 7.496-7.496"/></clipPath><clipPath id="c"><path d="M63.168 46.95h62.219v62.218H63.168Zm0 0"/></clipPath><clipPath id="d"><path d="M70.7 46.95h47.16a7.53 7.53 0 0 1 7.527 7.527v47.164a7.53 7.53 0 0 1-7.528 7.527H70.7a7.53 7.53 0 0 1-7.531-7.527V54.477a7.53 7.53 0 0 1 7.531-7.528"/></clipPath><clipPath id="e"><path d="M81.46 116.094h62.313v62.312H81.461Zm0 0"/></clipPath><clipPath id="f"><path d="M88.957 116.094h46.965c4.14 0 7.496 3.36 7.496 7.496v46.965a7.495 7.495 0 0 1-7.496 7.496H88.957a7.5 7.5 0 0 1-7.496-7.496V123.59a7.5 7.5 0 0 1 7.496-7.496"/></clipPath><clipPath id="g"><path d="M81.46 116.094h62.22v62.219H81.46Zm0 0"/></clipPath><clipPath id="h"><path d="M88.988 116.094h47.164a7.53 7.53 0 0 1 7.528 7.527v47.164a7.53 7.53 0 0 1-7.528 7.528H88.988a7.53 7.53 0 0 1-7.527-7.528v-47.164a7.53 7.53 0 0 1 7.527-7.527"/></clipPath><clipPath id="i"><path d="M12.012 116.094H74v62.312H12.012Zm0 0"/></clipPath><clipPath id="j"><path d="M19.508 116.094h46.96c4.141 0 7.497 3.36 7.497 7.496v46.965a7.495 7.495 0 0 1-7.496 7.496H19.508a7.495 7.495 0 0 1-7.496-7.496V123.59a7.5 7.5 0 0 1 7.496-7.496"/></clipPath><clipPath id="k"><path d="M12.012 116.094h62.215v62.219H12.012Zm0 0"/></clipPath><clipPath id="l"><path d="M19.54 116.094H66.7a7.526 7.526 0 0 1 7.527 7.527v47.164a7.526 7.526 0 0 1-7.528 7.528H19.54a7.53 7.53 0 0 1-7.527-7.528v-47.164a7.53 7.53 0 0 1 7.527-7.527"/></clipPath><clipPath id="m"><path d="M150.914 116.094H213v62.312h-62.086Zm0 0"/></clipPath><clipPath id="n"><path d="M158.41 116.094h46.961c4.14 0 7.496 3.36 7.496 7.496v46.965a7.495 7.495 0 0 1-7.496 7.496h-46.96a7.495 7.495 0 0 1-7.497-7.496V123.59a7.5 7.5 0 0 1 7.496-7.496"/></clipPath><clipPath id="o"><path d="M150.914 116.094h62.215v62.219h-62.215Zm0 0"/></clipPath><clipPath id="p"><path d="M158.441 116.094h47.16a7.526 7.526 0 0 1 7.528 7.527v47.164a7.526 7.526 0 0 1-7.527 7.528h-47.16a7.53 7.53 0 0 1-7.528-7.528v-47.164a7.53 7.53 0 0 1 7.527-7.527"/></clipPath></defs><g clip-path="url(#a)"><g clip-path="url(#b)"><path fill="#ae8cfa" d="M63.168 46.95h62.312v62.312H63.168Zm0 0"/></g></g><g clip-path="url(#c)"><g clip-path="url(#d)"><path fill="none" stroke="#ae8cfa" stroke-width="3.01144" d="M70.7 46.95h47.16a7.53 7.53 0 0 1 7.527 7.527v47.164a7.53 7.53 0 0 1-7.528 7.527H70.7a7.53 7.53 0 0 1-7.531-7.527V54.477a7.53 7.53 0 0 1 7.531-7.528"/></g></g><g clip-path="url(#e)"><g clip-path="url(#f)"><path fill="#ae8cfa" d="M81.46 116.094h62.313v62.312H81.461Zm0 0"/></g></g><g clip-path="url(#g)"><g clip-path="url(#h)"><path fill="none" stroke="#ae8cfa" stroke-width="3.01144" d="M88.988 116.094h47.164a7.53 7.53 0 0 1 7.528 7.527v47.164a7.53 7.53 0 0 1-7.528 7.528H88.988a7.53 7.53 0 0 1-7.527-7.528v-47.164a7.53 7.53 0 0 1 7.527-7.527"/></g></g><g clip-path="url(#i)"><g clip-path="url(#j)"><path fill="#ae8cfa" d="M12.012 116.094h62.312v62.312H12.012Zm0 0"/></g></g><g clip-path="url(#k)"><g clip-path="url(#l)"><path fill="none" stroke="#ae8cfa" stroke-width="3.01144" d="M19.54 116.094H66.7a7.526 7.526 0 0 1 7.527 7.527v47.164a7.526 7.526 0 0 1-7.528 7.528H19.54a7.53 7.53 0 0 1-7.527-7.528v-47.164a7.53 7.53 0 0 1 7.527-7.527"/></g></g><g clip-path="url(#m)"><g clip-path="url(#n)"><path fill="#ae8cfa" d="M150.914 116.094h62.313v62.312h-62.313Zm0 0"/></g></g><g clip-path="url(#o)"><g clip-path="url(#p)"><path fill="none" stroke="#ae8cfa" stroke-width="3.01144" d="M158.441 116.094h47.16a7.526 7.526 0 0 1 7.528 7.527v47.164a7.526 7.526 0 0 1-7.527 7.528h-47.16a7.53 7.53 0 0 1-7.528-7.528v-47.164a7.53 7.53 0 0 1 7.527-7.527"/></g></g></svg>