<svg xmlns="http://www.w3.org/2000/svg" xmlns:xlink="http://www.w3.org/1999/xlink" width="100" zoomAndPan="magnify" viewBox="0 0 75 74.999997" height="100" preserveAspectRatio="xMidYMid meet" version="1.0"><defs><clipPath id="fa4d1f0de7"><path d="M 0 11.296875 L 75 11.296875 L 75 63.796875 L 0 63.796875 Z M 0 11.296875 " clip-rule="nonzero"/></clipPath></defs><g clip-path="url(#fa4d1f0de7)"><path fill="#e40001" d="M 74.96875 63.796875 L 0.03125 63.796875 L 0.03125 11.296875 L 74.96875 11.296875 L 74.96875 63.796875 " fill-opacity="1" fill-rule="nonzero"/></g><path fill="#007d34" d="M 32.863281 42.277344 L 36.003906 44.566406 L 30.925781 48.269531 Z M 33.140625 35.726562 L 31.941406 39.429688 L 26.859375 35.726562 Z M 39.441406 33.964844 L 35.558594 33.964844 L 37.5 27.972656 Z M 48.140625 35.726562 L 43.058594 39.429688 L 41.859375 35.726562 Z M 44.074219 48.269531 L 38.996094 44.566406 L 42.136719 42.277344 L 42.148438 42.320312 Z M 34.988281 35.726562 L 40.011719 35.726562 L 41.5625 40.515625 L 37.5 43.480469 L 33.4375 40.515625 Z M 47.417969 52.882812 L 43.628906 41.191406 L 53.546875 33.964844 L 41.289062 33.964844 L 37.5 22.273438 L 33.710938 33.964844 L 21.453125 33.964844 L 31.371094 41.191406 L 27.582031 52.882812 L 37.5 45.65625 L 47.417969 52.882812 " fill-opacity="1" fill-rule="nonzero"/><path fill="#000000" d="M 35.695312 33.867188 L 39.304688 33.867188 L 37.5 28.289062 Z M 39.574219 34.0625 L 35.425781 34.0625 L 37.5 27.65625 Z M 27.160156 35.824219 L 31.890625 39.269531 L 33.007812 35.824219 Z M 31.992188 39.585938 L 26.558594 35.628906 L 33.273438 35.628906 Z M 41.992188 35.824219 L 43.109375 39.269531 L 47.839844 35.824219 Z M 43.007812 39.585938 L 41.726562 35.628906 L 48.441406 35.628906 Z M 33.550781 40.480469 L 37.5 43.359375 L 41.449219 40.480469 L 39.941406 35.824219 L 35.058594 35.824219 Z M 37.5 43.597656 L 33.320312 40.554688 L 34.917969 35.628906 L 40.082031 35.628906 L 41.679688 40.554688 Z M 32.917969 42.4375 L 31.109375 48.011719 L 35.839844 44.566406 Z M 30.738281 48.527344 L 32.8125 42.121094 L 36.171875 44.566406 Z M 39.160156 44.566406 L 43.890625 48.011719 L 42.082031 42.4375 Z M 44.261719 48.527344 L 38.828125 44.566406 L 42.1875 42.121094 Z M 37.5 45.535156 L 47.230469 52.625 L 43.515625 41.152344 L 53.246094 34.0625 L 41.21875 34.0625 L 37.5 22.589844 L 33.78125 34.0625 L 21.753906 34.0625 L 31.484375 41.152344 L 27.769531 52.625 Z M 47.601562 53.140625 L 37.5 45.777344 L 27.398438 53.140625 L 31.253906 41.226562 L 21.152344 33.867188 L 33.640625 33.867188 L 37.5 21.953125 L 41.359375 33.867188 L 53.847656 33.867188 L 43.746094 41.226562 L 47.601562 53.140625 " fill-opacity="1" fill-rule="nonzero"/><path fill="#000000" d="M 41.648438 34.0625 L 39.035156 34.0625 L 39.035156 33.867188 L 41.648438 33.867188 L 41.648438 34.0625 " fill-opacity="1" fill-rule="nonzero"/><path fill="#000000" d="M 33.886719 33.734375 L 33.078125 36.238281 L 32.886719 36.199219 L 33.707031 33.65625 L 33.886719 33.734375 " fill-opacity="1" fill-rule="nonzero"/><path fill="#000000" d="M 35.773438 33.617188 L 34.964844 36.113281 L 34.773438 36.074219 L 35.597656 33.53125 L 35.773438 33.617188 " fill-opacity="1" fill-rule="nonzero"/><path fill="#000000" d="M 43.027344 39.011719 L 43.835938 41.507812 L 43.65625 41.59375 L 42.835938 39.054688 L 43.027344 39.011719 " fill-opacity="1" fill-rule="nonzero"/><path fill="#000000" d="M 41.539062 40.121094 L 42.347656 42.617188 L 42.167969 42.703125 L 41.347656 40.160156 L 41.539062 40.121094 " fill-opacity="1" fill-rule="nonzero"/><path fill="#000000" d="M 37.90625 43.304688 L 35.757812 44.871094 L 35.636719 44.710938 L 37.796875 43.140625 L 37.90625 43.304688 " fill-opacity="1" fill-rule="nonzero"/><path fill="#000000" d="M 39.445312 44.359375 L 37.277344 45.9375 L 37.15625 45.785156 L 39.324219 44.207031 L 39.445312 44.359375 " fill-opacity="1" fill-rule="nonzero"/><path fill="#000000" d="M 42.265625 35.824219 L 39.652344 35.824219 L 39.652344 35.628906 L 42.265625 35.628906 L 42.265625 35.824219 " fill-opacity="1" fill-rule="nonzero"/><path fill="#000000" d="M 33.691406 40.824219 L 31.558594 39.269531 L 31.667969 39.105469 L 33.808594 40.667969 L 33.691406 40.824219 " fill-opacity="1" fill-rule="nonzero"/><path fill="#000000" d="M 33.039062 42.527344 L 30.90625 40.972656 L 31.015625 40.808594 L 33.160156 42.371094 L 33.039062 42.527344 " fill-opacity="1" fill-rule="nonzero"/></svg>